<?xml version="1.0" standalone="no"?>
<!DOCTYPE svg PUBLIC "-//W3C//DTD SVG 20010904//EN"
 "http://www.w3.org/TR/2001/REC-SVG-20010904/DTD/svg10.dtd">
<svg version="1.0" xmlns="http://www.w3.org/2000/svg"
 width="341.000000pt" height="341.000000pt" viewBox="0 0 341.000000 341.000000"
 preserveAspectRatio="xMidYMid meet">
<metadata>
Created by potrace 1.14, written by Peter Selinger 2001-2017
</metadata>
<g transform="translate(0.000000,341.000000) scale(0.100000,-0.100000)"
fill="#000000" stroke="none">
<path d="M1620 3296 c-25 -7 -58 -18 -73 -25 -37 -14 -147 -124 -147 -146 0
-9 -4 -14 -8 -11 -4 2 -8 -3 -9 -12 -1 -9 -6 -35 -11 -57 -10 -38 -19 -102
-26 -190 -2 -22 -7 -69 -10 -105 -4 -36 -8 -87 -10 -115 -3 -27 -7 -77 -11
-110 -3 -33 -8 -80 -10 -105 -3 -25 -7 -65 -10 -90 -7 -67 -17 -183 -17 -202
1 -10 -6 -18 -15 -18 -9 0 -13 3 -10 7 4 3 3 11 -2 17 -5 6 -25 52 -45 101
-21 50 -44 105 -53 124 -8 18 -16 39 -17 45 -1 6 -8 21 -14 34 -7 12 -10 22
-7 22 3 0 -2 11 -11 25 -9 14 -14 28 -11 32 3 3 -1 12 -9 20 -8 9 -13 22 -10
29 3 8 2 14 -3 14 -5 0 -16 21 -26 48 -21 56 -53 129 -67 155 -5 11 -7 21 -4
24 3 3 -2 12 -10 20 -8 9 -13 22 -10 29 3 8 1 14 -4 14 -6 0 -10 5 -10 10 0 6
-12 29 -27 53 -15 23 -26 46 -25 50 1 5 -1 6 -6 3 -5 -3 -14 5 -21 17 -13 24
-79 69 -127 87 -48 19 -153 21 -217 5 -61 -16 -124 -54 -168 -102 -33 -35 -80
-109 -73 -116 2 -2 0 -16 -5 -30 -12 -32 -15 -112 -5 -152 4 -16 7 -38 8 -47
0 -10 3 -18 7 -18 7 0 23 -50 21 -62 -1 -5 3 -8 9 -8 6 0 9 -6 6 -14 -3 -8 1
-20 9 -26 8 -7 14 -18 14 -25 0 -6 7 -26 16 -44 9 -17 17 -37 18 -44 1 -7 8
-22 14 -35 7 -12 10 -27 7 -32 -3 -6 -2 -10 3 -10 4 0 19 -26 31 -57 13 -32
34 -82 47 -111 13 -29 22 -57 19 -62 -3 -4 0 -10 5 -12 6 -2 12 -10 14 -18 1
-8 8 -25 14 -37 7 -13 10 -23 8 -23 -3 0 3 -16 14 -36 11 -19 18 -39 15 -45
-4 -5 -2 -9 3 -9 5 0 30 -55 57 -122 26 -68 53 -129 58 -136 8 -10 7 -16 -2
-21 -7 -5 -11 -10 -10 -12 6 -7 -28 -49 -34 -44 -4 3 -5 2 -2 -2 3 -3 -1 -16
-8 -27 -24 -37 -56 -132 -63 -187 -8 -71 -8 -280 2 -349 4 -30 8 -70 8 -87 1
-18 4 -33 9 -33 4 0 7 -12 7 -26 0 -14 5 -34 10 -44 6 -10 11 -30 12 -44 1
-15 5 -26 8 -26 10 0 30 -63 23 -73 -3 -6 -1 -7 4 -4 10 6 27 -27 24 -45 -1
-5 4 -8 10 -8 6 0 8 -7 5 -17 -4 -10 -4 -14 0 -10 4 3 20 -14 36 -39 15 -25
37 -55 48 -66 11 -12 17 -25 14 -30 -3 -5 -2 -7 3 -6 12 4 53 -34 47 -44 -3
-4 -1 -8 4 -8 5 0 29 -19 53 -41 24 -23 61 -53 81 -67 21 -13 38 -27 38 -29 0
-2 -5 -1 -12 3 -7 4 -8 3 -4 -5 4 -6 12 -9 17 -6 5 4 21 -2 37 -13 33 -24 135
-72 150 -72 7 0 12 -4 12 -8 0 -4 8 -8 18 -9 38 -4 82 -16 82 -22 0 -3 10 -6
23 -7 12 -1 47 -5 77 -10 64 -10 644 -12 710 -2 25 4 74 16 109 27 35 11 68
18 73 15 4 -3 8 -1 8 4 0 9 40 24 56 21 4 0 10 3 13 8 9 13 91 54 91 45 0 -4
4 -2 8 3 8 11 78 64 89 68 4 1 32 26 62 54 31 29 59 53 64 53 4 0 7 5 7 11 0
15 26 39 35 31 4 -4 5 -2 3 3 -3 10 43 82 75 116 9 11 17 21 17 24 -1 13 55
125 63 125 4 0 6 4 3 9 -4 5 -1 22 5 38 6 15 12 35 15 43 43 176 45 193 46
630 1 350 -2 406 -28 445 -8 12 -11 25 -7 28 3 4 1 7 -5 7 -6 0 -13 8 -16 18
-14 42 -149 152 -178 144 -4 -1 -20 3 -35 9 -57 22 -228 1 -248 -31 -11 -18
-41 -10 -68 18 -15 16 -25 31 -22 35 3 4 2 5 -1 2 -4 -2 -21 6 -38 19 -64 48
-200 82 -254 64 -12 -4 -34 -10 -48 -12 l-26 -5 7 62 c4 34 8 91 10 126 2 35
7 76 10 91 3 15 8 62 10 104 2 42 6 80 10 85 3 6 7 45 10 88 2 43 7 89 10 103
14 55 7 156 -15 215 -12 33 -24 68 -27 78 -3 9 -9 17 -14 17 -5 0 -9 4 -9 9 0
5 -18 27 -40 49 -22 22 -40 38 -40 36 0 -2 -23 9 -52 23 -61 31 -166 39 -238
19z m175 -219 c56 -34 70 -103 51 -252 -4 -33 -9 -78 -10 -100 -6 -86 -18
-211 -22 -235 -2 -14 -6 -56 -10 -95 -7 -79 -9 -101 -18 -200 -7 -70 -10 -100
-22 -209 -4 -32 -8 -77 -9 -100 -1 -22 -3 -43 -5 -46 -1 -3 -3 -14 -4 -25 -1
-21 -10 -22 -81 -10 -22 4 -78 8 -125 9 l-85 1 1 35 c0 36 14 196 20 240 2 14
6 59 9 100 3 41 8 91 11 110 3 19 7 55 9 80 2 25 7 70 10 100 3 30 7 87 10
125 4 39 8 86 11 105 3 19 7 60 9 90 5 59 14 133 20 165 2 11 4 28 4 38 1 9
16 33 34 53 49 54 124 62 192 21z m-1143 -176 c38 -3 109 -93 123 -156 1 -5 7
-23 14 -40 7 -16 12 -31 12 -33 -1 -1 8 -18 19 -39 10 -20 17 -40 14 -45 -3
-4 0 -8 5 -8 6 0 11 -9 11 -19 0 -11 5 -23 11 -26 6 -4 8 -13 5 -21 -3 -8 -1
-14 4 -14 8 0 34 -64 35 -85 0 -5 6 -15 13 -21 8 -5 15 -22 15 -37 1 -15 4
-27 7 -27 5 0 15 -22 40 -85 14 -37 53 -130 73 -175 11 -25 20 -49 22 -55 1
-5 7 -21 12 -35 48 -116 62 -154 58 -161 -3 -4 -22 -7 -43 -7 -64 1 -164 -12
-200 -28 -26 -10 -38 -11 -48 -3 -8 6 -11 15 -8 20 3 5 1 9 -4 9 -8 0 -18 22
-27 60 0 3 -6 15 -13 28 -7 12 -10 27 -7 32 3 6 2 10 -3 10 -9 0 -37 65 -44
100 -2 8 -5 17 -8 20 -13 13 -40 82 -35 90 3 4 0 10 -5 12 -6 2 -12 10 -13 18
-2 8 -10 30 -20 49 -9 18 -14 37 -11 42 3 5 1 9 -3 9 -5 0 -15 17 -22 38 -8
20 -18 48 -24 62 -6 14 -11 27 -12 30 -1 3 -7 19 -15 35 -45 101 -58 135 -53
135 3 0 0 7 -7 15 -6 8 -8 20 -4 26 4 7 3 9 -3 6 -13 -8 -48 99 -47 146 1 22
8 43 15 48 8 5 10 9 5 9 -5 0 -1 9 10 21 24 26 90 57 118 54 11 -1 29 -3 38
-4z m1530 -912 c9 -5 30 -26 45 -46 l28 -36 1 -233 c2 -257 -5 -291 -62 -331
-34 -23 -91 -37 -99 -23 -3 5 -12 7 -20 3 -20 -7 -83 42 -97 75 -15 35 -19
478 -5 512 15 35 57 75 92 87 31 11 88 7 117 -8z m506 -107 c12 -8 32 -29 44
-45 22 -30 22 -40 22 -281 1 -188 -2 -250 -12 -254 -6 -2 -12 -10 -12 -18 0
-17 -53 -57 -82 -61 -12 -2 -23 -5 -25 -7 -2 -2 -23 1 -46 6 -43 9 -87 42 -87
64 0 7 -6 14 -12 16 -10 4 -14 62 -15 239 -2 217 -1 237 18 281 15 33 30 50
52 60 18 7 35 13 39 13 3 0 10 3 14 8 10 10 74 -3 102 -21z m-1058 -283 c0 -4
8 -5 18 -3 27 8 88 -54 101 -102 21 -76 -28 -155 -106 -172 -22 -5 -118 -10
-214 -10 -96 -1 -181 -3 -189 -5 -56 -12 -91 -72 -72 -126 6 -16 8 -32 5 -34
-2 -3 5 -8 16 -12 12 -3 21 -10 21 -14 0 -11 2 -11 215 -14 240 -3 327 14 403
81 23 20 52 20 52 -1 0 -6 3 -7 7 -4 3 4 20 -4 37 -17 17 -13 63 -32 101 -42
60 -16 80 -18 135 -8 36 6 75 16 86 22 12 6 24 8 28 5 3 -3 6 -1 6 5 0 25 49
12 70 -18 25 -35 101 -90 124 -90 9 0 16 -4 16 -8 0 -5 6 -9 13 -10 6 -1 31
-3 54 -5 24 -2 45 -6 48 -9 3 -3 34 1 68 8 34 7 65 13 70 14 4 0 7 -16 7 -35
0 -19 -3 -35 -7 -35 -5 0 -9 -15 -10 -32 -4 -51 -54 -169 -107 -252 -35 -54
-143 -176 -156 -176 -4 0 -22 -13 -40 -30 -56 -52 -204 -117 -335 -146 -49
-10 -554 -13 -625 -3 -112 15 -250 54 -250 70 0 5 -3 8 -7 7 -11 -3 -76 32
-85 46 -4 6 -8 7 -8 3 0 -8 -17 4 -61 44 -15 15 -30 25 -32 22 -3 -2 -27 22
-53 54 -27 32 -52 60 -56 61 -5 2 -8 10 -8 18 0 8 -4 14 -9 14 -5 0 -14 15
-22 33 -7 17 -15 34 -18 37 -27 24 -80 187 -87 265 -2 22 -6 58 -9 80 -9 62
-6 225 5 283 5 29 17 67 26 84 22 42 65 94 76 91 4 -2 8 1 8 7 0 13 71 48 117
58 47 10 633 10 633 1z"/>
</g>
</svg>
